<?xml version="1.0" encoding="UTF-8"?>
<svg version="1.1" xmlns="http://www.w3.org/2000/svg" width="489" height="523">
<path d="M0 0 C1.17949219 0.00193359 1.17949219 0.00193359 2.3828125 0.00390625 C8.96580801 1.14922365 14.75955356 5.77841212 20.3125 9.3125 C21.54323242 10.08787109 21.54323242 10.08787109 22.79882812 10.87890625 C25.16936968 12.38106905 27.52594204 13.90198843 29.875 15.4375 C30.56352051 15.88512695 31.25204102 16.33275391 31.96142578 16.79394531 C35.29086946 19.04690047 37.4041798 20.68795345 38.875 24.4375 C39.13569641 26.44139099 39.13569641 26.44139099 39.1496582 28.57592773 C39.15919022 29.38033798 39.16872223 30.18474823 39.17854309 31.01353455 C39.17717598 32.30427635 39.17717598 32.30427635 39.17578125 33.62109375 C39.18006638 34.51361343 39.1843515 35.40613312 39.18876648 36.32569885 C39.19450264 38.21102043 39.1950153 40.09636414 39.19067383 41.98168945 C39.18751511 44.86122517 39.21097732 47.73973197 39.23632812 50.61914062 C39.23860136 52.45312371 39.2393045 54.28710954 39.23828125 56.12109375 C39.247491 56.97956406 39.25670074 57.83803436 39.26618958 58.72251892 C39.22961898 63.46389486 38.93652579 66.58105334 35.875 70.4375 C33.5 72.51953125 33.5 72.51953125 30.875 74.4375 C30.070625 75.03949219 29.26625 75.64148438 28.4375 76.26171875 C27.591875 76.87660156 26.74625 77.49148437 25.875 78.125 C24.97200637 78.79974774 24.06901274 79.47449549 23.13865566 80.16969013 C19.875 82.4375 19.875 82.4375 16.49819279 84.19666576 C11.15224773 87.16327517 7.58053182 89.19136935 5.69474602 95.19495583 C5.09428586 99.91749163 5.24507677 104.6301199 5.37084961 109.37817383 C5.37120292 111.19565583 5.36576908 113.01314673 5.35501099 114.83059692 C5.3416713 119.74700132 5.40746518 124.65953856 5.48667598 129.57520127 C5.55489009 134.72354397 5.54609696 139.8717209 5.54457092 145.02043152 C5.55260068 154.76608252 5.62329169 164.51014345 5.71953732 174.25528401 C5.88976814 191.72176972 5.9488931 209.18887804 5.99167258 226.65608233 C6.00911647 232.78621185 6.05259035 238.91546275 6.11792076 245.04526389 C6.15552977 248.85194946 6.17749271 252.65862137 6.19601822 256.46544266 C6.20827952 258.23280951 6.2275385 260.00014348 6.25424004 261.76735115 C6.28991107 264.17642278 6.30115305 266.58442743 6.3065033 268.99372864 C6.32313127 269.69576363 6.33975924 270.39779862 6.3568911 271.1211074 C6.33898499 274.49741055 6.10352608 276.15019929 3.97266483 278.82909679 C1.92770672 280.39708666 0.06003767 281.53402415 -2.28125 282.6015625 C-3.12042969 282.99214844 -3.95960938 283.38273437 -4.82421875 283.78515625 C-5.74847656 284.20667969 -6.67273438 284.62820313 -7.625 285.0625 C-18.21994981 290.00680991 -28.68102609 295.18380551 -39.125 300.4375 C-48.83512747 305.31573648 -58.54713037 310.17446137 -68.375 314.8125 C-79.04435741 319.84946662 -89.58083447 325.1451766 -100.125 330.4375 C-121.36461964 341.09801453 -121.36461964 341.09801453 -131.5 345.875 C-142.46695279 351.04489274 -153.28901999 356.5002716 -164.125 361.9375 C-177.97476462 368.88531614 -191.83399978 375.7875608 -205.86474609 382.36474609 C-208.11668514 383.43355363 -210.35043787 384.53395205 -212.58203125 385.64453125 C-213.27208252 385.98242676 -213.96213379 386.32032227 -214.6730957 386.66845703 C-216.44219642 387.53541596 -218.20580662 388.41355657 -219.96875 389.29296875 C-225.03871165 391.13145732 -228.53237584 391.17486066 -233.44921875 388.8984375 C-234.55910156 388.21007812 -235.66898438 387.52171875 -236.8125 386.8125 C-238.05569206 386.06114897 -239.3005081 385.31247892 -240.546875 384.56640625 C-241.15724609 384.19789551 -241.76761719 383.82938477 -242.39648438 383.44970703 C-244.72600341 382.08555648 -247.12762449 380.91404136 -249.5625 379.75 C-255.57844823 376.806196 -261.37043684 373.50454255 -267.1875 370.1875 C-274.27362202 366.14733239 -281.38303754 362.19150003 -288.625 358.4375 C-296.84225898 354.17428492 -304.90587603 349.66366481 -312.94726562 345.078125 C-314.757336 344.04601074 -316.57044621 343.01920734 -318.38671875 341.99804688 C-320.30108697 340.90704815 -322.1984524 339.78591298 -324.08203125 338.64257812 C-325.04496094 338.07474609 -326.00789063 337.50691406 -327 336.921875 C-327.86367188 336.39819336 -328.72734375 335.87451172 -329.6171875 335.33496094 C-332.11908662 334.17118513 -332.11908662 334.17118513 -334.7277832 335.13549805 C-336.80068449 336.2613543 -338.70659794 337.39082578 -340.60546875 338.78515625 C-341.21197266 339.22537109 -341.81847656 339.66558594 -342.44335938 340.11914062 C-343.36858398 340.80266602 -343.36858398 340.80266602 -344.3125 341.5 C-350.09274823 345.72699178 -353.57912783 348.10724867 -360.875 348.03125 C-366.84425662 346.94071273 -371.41045779 343.25431179 -376.23974609 339.77246094 C-378.18815721 338.39277796 -380.1707405 337.08489252 -382.17578125 335.7890625 C-382.84577148 335.3544873 -383.51576172 334.91991211 -384.20605469 334.47216797 C-385.49097439 333.63909164 -386.77673204 332.80730577 -388.06347656 331.97705078 C-397.31928714 325.85463859 -397.31928714 325.85463859 -399.125 320.4375 C-398.99782442 318.81057233 -398.81470431 317.18770467 -398.59765625 315.5703125 C-398.05481894 309.31458409 -397.72227796 303.35005006 -400.125 297.4375 C-405.63350249 291.66525788 -413.57782141 288.92034091 -420.80859375 285.89355469 C-426.04695818 283.59367207 -430.93765064 280.75278187 -435.875 277.875 C-436.74866211 277.38555908 -437.62232422 276.89611816 -438.52246094 276.3918457 C-448.32626732 270.83369803 -448.32626732 270.83369803 -450.125 265.4375 C-450.24610727 262.61937044 -450.31315045 259.82675304 -450.328125 257.0078125 C-450.33382507 256.180466 -450.33952515 255.35311951 -450.34539795 254.5007019 C-450.35484023 252.75064368 -450.36137887 251.00056773 -450.36523438 249.25048828 C-450.37493847 246.57943569 -450.40596785 243.90915325 -450.4375 241.23828125 C-450.44403058 239.53646289 -450.44928084 237.83463904 -450.453125 236.1328125 C-450.4654718 235.33682648 -450.4778186 234.54084045 -450.49053955 233.72073364 C-450.47221603 229.13708614 -450.08885426 226.16712184 -447.125 222.4375 C-443.99557535 220.87278767 -440.51417777 220.74048042 -437.125 221.4375 C-433.91783808 223.79513467 -433.18819561 225.02361961 -432.57910156 229.01269531 C-432.53802981 230.42990141 -432.51803414 231.84782592 -432.515625 233.265625 C-432.49082062 234.38913361 -432.49082062 234.38913361 -432.46551514 235.53533936 C-432.4170649 237.91947654 -432.39567228 240.30297611 -432.375 242.6875 C-432.3468376 244.30732369 -432.31690978 245.92711772 -432.28515625 247.546875 C-432.21130756 251.51036414 -432.16171543 255.47349998 -432.125 259.4375 C-431.23192139 259.91171387 -430.33884277 260.38592773 -429.41870117 260.87451172 C-426.10242665 262.63594611 -422.78725551 264.3994483 -419.47241211 266.16357422 C-418.03814173 266.92650814 -416.60357358 267.68888253 -415.16870117 268.45068359 C-413.10516901 269.54637703 -411.04271948 270.64408454 -408.98046875 271.7421875 C-408.01937447 272.25167435 -408.01937447 272.25167435 -407.03886414 272.77145386 C-404.30778015 274.22789455 -401.70332314 275.71861791 -399.125 277.4375 C-398.78500977 277.01774902 -398.44501953 276.59799805 -398.09472656 276.16552734 C-392.47090492 269.87220312 -385.35390114 266.64060372 -377.875 263.0625 C-376.582711 262.42965466 -375.29103864 261.7955485 -374 261.16015625 C-361.31129143 254.9502938 -361.31129143 254.9502938 -354.125 255.4375 C-349.12197852 257.37048557 -344.70259151 260.56455727 -340.2109375 263.46875 C-338.04137815 264.85287394 -335.86881369 266.20619086 -333.6640625 267.53125 C-333.085354 267.88034424 -332.50664551 268.22943848 -331.91040039 268.58911133 C-330.26668174 269.57739221 -328.61974693 270.56031805 -326.97265625 271.54296875 C-323.14023194 274.09266119 -320.59748353 276.02004942 -319.125 280.4375 C-319.21049756 282.52473848 -319.30356728 284.61211161 -319.44593811 286.69624329 C-321.40159507 306.18049271 -321.40159507 306.18049271 -316.30810547 324.38427734 C-311.26920399 328.95281041 -305.07102112 330.97650775 -298.70800781 333.10839844 C-292.74265051 335.32122245 -287.30469913 338.46952464 -281.75418091 341.55432129 C-278.56237656 343.31434115 -275.33628326 345.00895753 -272.11328125 346.7109375 C-266.54361124 349.6674682 -261.00596153 352.67648173 -255.5 355.75 C-254.81736084 356.12825928 -254.13472168 356.50651855 -253.43139648 356.89624023 C-249.52553836 359.06771302 -245.65780974 361.29476398 -241.8046875 363.55859375 C-239.99480713 364.60158933 -238.18491158 365.64455858 -236.375 366.6875 C-235.5401709 367.19063721 -234.7053418 367.69377441 -233.84521484 368.2121582 C-233.0558252 368.66292725 -232.26643555 369.11369629 -231.453125 369.578125 C-230.41526855 370.18962402 -230.41526855 370.18962402 -229.35644531 370.81347656 C-224.10761367 372.28131176 -218.52629384 368.30350439 -213.8671875 366.015625 C-213.17483002 365.67912933 -212.48247253 365.34263367 -211.76913452 364.99594116 C-209.51088311 363.89692401 -207.25539562 362.79236438 -205 361.6875 C-203.42293622 360.91828344 -201.84578681 360.14924242 -200.26855469 359.38037109 C-189.44826438 354.09817136 -178.67224577 348.73120138 -167.91455078 343.32275391 C-160.03132701 339.36692059 -152.09665292 335.53606098 -144.12597656 331.76025391 C-135.73419918 327.76713512 -127.42863338 323.60970323 -119.125 319.4375 C-109.10716157 314.40402009 -99.06018013 309.45602953 -88.92578125 304.66015625 C-79.9016313 300.37082123 -70.98033058 295.88212693 -62.05285645 291.39630127 C-52.27322684 286.48446158 -42.45576455 281.66797137 -32.56567383 276.98120117 C-26.70410358 274.20319303 -20.89631976 271.34818396 -15.13671875 268.36328125 C-13.125 267.4375 -13.125 267.4375 -11.125 267.4375 C-11.12638269 266.10563723 -11.12638269 266.10563723 -11.12779331 264.74686813 C-11.14986383 243.15643161 -11.16641904 221.56599703 -11.17681217 199.97555161 C-11.18197161 189.53464096 -11.18900764 179.09373784 -11.20043945 168.65283203 C-11.210397 159.55407305 -11.21685599 150.45531951 -11.21908849 141.35655522 C-11.22039377 136.53746825 -11.22346814 131.71839686 -11.23073006 126.89931488 C-11.23750713 122.36533092 -11.2396135 117.83136899 -11.23810768 113.29738045 C-11.23838325 111.63167514 -11.24037838 109.96596911 -11.24420547 108.30026817 C-11.24916903 106.02890724 -11.2479884 103.75762989 -11.24525452 101.48626709 C-11.24663721 99.57815561 -11.24663721 99.57815561 -11.24804783 97.63149643 C-11.14746465 95.02062306 -10.90625526 92.91134664 -10.125 90.4375 C-10.85203125 89.9528125 -11.5790625 89.468125 -12.328125 88.96875 C-14.44501255 87.55749163 -16.56082098 86.14461378 -18.67578125 84.73046875 C-20.91350625 83.23759645 -23.16113917 81.7651772 -25.41796875 80.30078125 C-26.45566406 79.62402344 -27.49335938 78.94726562 -28.5625 78.25 C-29.50996094 77.63769531 -30.45742188 77.02539062 -31.43359375 76.39453125 C-35.36723489 73.53422035 -38.42801424 70.48297864 -41.125 66.4375 C-41.38569641 64.43997192 -41.38569641 64.43997192 -41.3996582 62.13720703 C-41.40919022 61.272659 -41.41872223 60.40811096 -41.42854309 59.5173645 C-41.42717598 58.12044876 -41.42717598 58.12044876 -41.42578125 56.6953125 C-41.43006638 55.73478973 -41.4343515 54.77426697 -41.43876648 53.78463745 C-41.44451078 51.75210356 -41.44500931 49.71954911 -41.44067383 47.68701172 C-41.43751914 44.58134722 -41.4609536 41.47664007 -41.48632812 38.37109375 C-41.48860167 36.39583453 -41.48930436 34.42057276 -41.48828125 32.4453125 C-41.497491 31.5180838 -41.50670074 30.5908551 -41.51618958 29.63552856 C-41.48129776 24.75727514 -41.34669323 21.36952934 -38.125 17.4375 C-33.4342707 13.77506872 -28.12568649 11.41403481 -22.75 8.9375 C-21.11679372 8.17792946 -19.48397718 7.41752031 -17.8515625 6.65625 C-16.66264404 6.10626343 -16.66264404 6.10626343 -15.44970703 5.54516602 C-13.21434383 4.48007015 -11.03291276 3.33991415 -8.84375 2.18359375 C-5.81145572 0.6587353 -3.45039385 -0.08540579 0 0 Z " fill="#D18207" transform="translate(450.125,132.5625)"/>
<path d="M0 0 C0.96945557 0.54245361 1.93891113 1.08490723 2.93774414 1.64379883 C8.13216047 4.62014182 13.29294479 7.64928303 18.4375 10.7109375 C19.61669299 11.41089917 20.79589236 12.11085008 21.97509766 12.81079102 C30.88696279 18.10810533 39.74919156 23.48531636 48.59765625 28.88769531 C55.37461271 33.02363197 62.17709581 37.10909713 69.03515625 41.109375 C69.69890259 41.49668289 70.36264893 41.88399078 71.04650879 42.28303528 C74.25153812 44.15118657 77.4600598 46.01302146 80.67333984 47.86694336 C81.83304132 48.54014411 82.99271095 49.21339972 84.15234375 49.88671875 C85.16288818 50.46977783 86.17343262 51.05283691 87.21459961 51.65356445 C93.21462313 55.41219081 96.66779501 58.66885088 99 65.3984375 C99.55723598 69.34210758 99.54733708 73.2332534 99.51757812 77.21118164 C99.5245874 78.37153427 99.53159668 79.5318869 99.53881836 80.72740173 C99.55636135 84.54637893 99.54478856 88.36460958 99.53125 92.18359375 C99.53394578 94.84582941 99.53782322 97.50804275 99.54284668 100.17027283 C99.55010666 105.74258451 99.54057799 111.31468355 99.52148438 116.88696289 C99.49970783 123.31620911 99.50677885 129.74494801 99.52879 136.174182 C99.54697859 141.70990733 99.54948586 147.24548052 99.53903532 152.7812261 C99.5328206 156.08069541 99.53349481 159.37987588 99.54518127 162.67933846 C99.55535369 166.35826932 99.53983441 170.03622924 99.51757812 173.71508789 C99.52567505 174.79944122 99.53377197 175.88379456 99.54211426 177.00100708 C99.47112946 183.34321354 98.80004242 187.25016197 95 192.3984375 C92.3125 194.375 92.3125 194.375 89 196.0234375 C88.36465332 196.34425293 87.72930664 196.66506836 87.07470703 196.99560547 C79.21579254 200.90433868 71.21050637 204.53162094 63.23632812 208.19775391 C54.60826939 212.16620509 46.04129031 216.24683522 37.5 220.3984375 C27.53844975 225.23349666 17.54361407 229.98632094 7.5 234.6484375 C6.31857422 235.19757813 5.13714844 235.74671875 3.91992188 236.3125 C-12.66310008 243.98567751 -12.66310008 243.98567751 -20.62890625 241.0703125 C-21.94773625 240.4455503 -23.258592 239.80377276 -24.5625 239.1484375 C-25.29299561 238.79273682 -26.02349121 238.43703613 -26.77612305 238.07055664 C-34.62584724 234.19292267 -42.28640177 229.95785813 -49.94921875 225.7265625 C-56.47801951 222.12372338 -63.04898186 218.60166573 -69.625 215.0859375 C-70.78854004 214.46267578 -71.95208008 213.83941406 -73.15087891 213.19726562 C-78.68280411 210.23474535 -84.21862059 207.2798607 -89.76373291 204.34208679 C-92.29754501 202.99902518 -94.82949019 201.65246589 -97.36126709 200.30557251 C-99.13110936 199.365878 -100.90364781 198.431267 -102.67626953 197.49682617 C-121.16756864 187.65547642 -121.16756864 187.65547642 -125 181.3984375 C-125.57952047 177.60545231 -125.48743504 173.84770068 -125.42578125 170.01806641 C-125.42303696 168.86790543 -125.42029266 167.71774445 -125.41746521 166.5327301 C-125.40278634 162.72973044 -125.35855986 158.92773973 -125.3125 155.125 C-125.29274747 152.48091485 -125.27420963 149.83682036 -125.25683594 147.19271851 C-125.21714162 141.64943155 -125.16049881 136.1065052 -125.09423828 130.56347656 C-125.01802317 124.1668762 -124.9704724 117.77053999 -124.93794918 111.37357962 C-124.90577221 105.20801501 -124.85130649 99.04285949 -124.78744507 92.8775444 C-124.76256636 90.25975751 -124.74350367 87.64190861 -124.7303772 85.02403641 C-124.70914855 81.36138749 -124.66258857 77.69990305 -124.609375 74.03759766 C-124.60812119 72.95788193 -124.60686737 71.8781662 -124.60557556 70.76573181 C-124.45276256 62.97758244 -123.08243244 58.4855976 -117.453125 52.84765625 C-112.92980892 49.37591209 -107.77916689 46.85836687 -102.75 44.2109375 C-100.57769333 43.05158972 -98.4058213 41.8914272 -96.234375 40.73046875 C-94.63625977 39.8789624 -94.63625977 39.8789624 -93.00585938 39.01025391 C-88.9786318 36.85075452 -84.98622284 34.63245924 -81 32.3984375 C-74.05788194 28.51600253 -67.0661185 24.73114163 -60.0625 20.9609375 C-52.5504816 16.91522661 -45.11158972 12.77432241 -37.75 8.4609375 C-11.9052094 -6.6664697 -11.9052094 -6.6664697 0 0 Z M-19.0625 29.8203125 C-20.01366699 30.3455249 -20.96483398 30.8707373 -21.94482422 31.41186523 C-22.95303223 31.98493408 -23.96124023 32.55800293 -25 33.1484375 C-27.14838086 34.34254982 -29.2968197 35.53655783 -31.4453125 36.73046875 C-32.53360352 37.34100098 -33.62189453 37.9515332 -34.74316406 38.58056641 C-40.63409591 41.86871322 -46.58023133 45.0557389 -52.515625 48.26269531 C-57.69164868 51.07964666 -62.76664782 54.02748099 -67.80761719 57.0793457 C-70.23575997 58.54028729 -72.69344834 59.92823711 -75.1875 61.2734375 C-76.53521484 62.00240234 -76.53521484 62.00240234 -77.91015625 62.74609375 C-80.27000326 64.00805997 -82.63199256 65.2655784 -84.99609375 66.51953125 C-85.67969971 66.88256348 -86.36330566 67.2455957 -87.06762695 67.61962891 C-88.42321229 68.33868272 -89.77979879 69.05585274 -91.13745117 69.77099609 C-94.2671241 71.29873576 -94.2671241 71.29873576 -97 73.3984375 C-97.11123944 76.30427174 -97.15740084 79.18655758 -97.16113281 82.09326172 C-97.16609772 83.0054245 -97.17106262 83.91758728 -97.17617798 84.85739136 C-97.19084014 87.88931011 -97.19760832 90.92117655 -97.203125 93.953125 C-97.20887311 96.05201215 -97.21463088 98.15089928 -97.22039795 100.24978638 C-97.23091949 104.65659837 -97.2367546 109.06339205 -97.24023438 113.47021484 C-97.24572155 119.12545564 -97.26974957 124.78045595 -97.29820633 130.43562126 C-97.31680209 134.77296665 -97.32203667 139.11025376 -97.32357025 143.44763565 C-97.32660424 145.53290242 -97.33465771 147.618168 -97.34775543 149.70339584 C-97.36475203 152.61739296 -97.36295134 155.53079808 -97.35644531 158.44482422 C-97.3656601 159.31143677 -97.37487488 160.17804932 -97.3843689 161.07092285 C-97.51099905 165.37162034 -97.51099905 165.37162034 -95.63140488 169.05389595 C-93.43611055 170.86317363 -91.11162918 172.04582593 -88.57421875 173.33203125 C-87.47924072 173.89204834 -86.3842627 174.45206543 -85.25610352 175.02905273 C-84.07846436 175.62532471 -82.9008252 176.22159668 -81.6875 176.8359375 C-79.20902492 178.10305618 -76.7331922 179.37528419 -74.2578125 180.6484375 C-73.63667068 180.96747543 -73.01552887 181.28651337 -72.37556458 181.61521912 C-66.89121137 184.43888983 -61.46806942 187.36493363 -56.0625 190.3359375 C-55.20148682 190.80604248 -54.34047363 191.27614746 -53.45336914 191.76049805 C-49.44576697 193.95021882 -45.44317015 196.14799778 -41.45751953 198.37744141 C-38.31032899 200.13786261 -35.15431912 201.88157709 -31.99313354 203.61672974 C-30.76195119 204.29667063 -29.53407653 204.98264074 -28.30984497 205.67501831 C-20.25597323 210.64350605 -20.25597323 210.64350605 -11.18212891 212.03808594 C-5.53365123 210.38234511 -0.34581922 207.56606306 4.875 204.8984375 C6.83005372 203.92163028 8.78792311 202.95064329 10.74610901 201.98013306 C12.03866511 201.33926402 13.33037038 200.69667595 14.62120056 200.05233765 C19.62438136 197.56011087 24.68252483 195.24017914 29.8125 193.0234375 C37.33361816 189.74738878 44.65905155 186.15493282 51.96630859 182.42919922 C54.14492735 181.32498212 56.3311011 180.23697889 58.51953125 179.15234375 C59.25864746 178.78560547 59.99776367 178.41886719 60.75927734 178.04101562 C62.18482336 177.33415443 63.61090975 176.62838174 65.03759766 175.92382812 C68.23084217 174.47675809 68.23084217 174.47675809 71 172.3984375 C71.20719068 169.4555128 71.34865607 166.53423304 71.44677734 163.58691406 C71.4975946 162.19887321 71.4975946 162.19887321 71.54943848 160.78279114 C71.84710553 152.20667467 72.02728483 143.62813967 72.170187 135.04817581 C72.26834112 129.28421763 72.40595261 123.52729564 72.63916016 117.76708984 C74.75090791 94.27710222 74.75090791 94.27710222 69.12057495 72.14981079 C64.44551355 67.35300903 59.04442015 65.16697508 52.71020508 63.27923584 C48.68577632 61.97132368 45.39254132 59.82227051 41.86328125 57.53515625 C40.61039422 56.7869985 39.353723 56.04513974 38.09326172 55.30981445 C37.47578064 54.94651031 36.85829956 54.58320618 36.22210693 54.20889282 C35.2768515 53.65302994 35.2768515 53.65302994 34.3125 53.0859375 C26.27642945 48.35579607 18.26363345 43.60447577 10.37890625 38.625 C9.77994034 38.24847794 9.18097443 37.87195587 8.56385803 37.48402405 C5.74683293 35.71254376 2.93989524 33.9294533 0.14575195 32.12182617 C-0.84336182 31.49767822 -1.83247559 30.87353027 -2.8515625 30.23046875 C-3.70572754 29.68108643 -4.55989258 29.1317041 -5.43994141 28.56567383 C-10.53589609 26.24221786 -14.33452851 27.16585246 -19.0625 29.8203125 Z " fill="#117396" transform="translate(246,135.6015625)"/>
<path d="M0 0 C8.22830814 4.33199884 16.16847794 9.10077177 24.11328125 13.9296875 C30.14007333 17.58208493 36.25197633 21.08353078 42.39086914 24.54370117 C43.1358667 24.9688501 43.88086426 25.39399902 44.6484375 25.83203125 C45.30142822 26.20078369 45.95441895 26.56953613 46.62719727 26.94946289 C49.71644514 28.97695518 51.1808695 30.40734354 52.26953125 33.984375 C52.4197748 37.74046363 51.67797509 39.17351863 49.39453125 42.109375 C45.84823872 44.47357002 44.57536549 44.55425216 40.39453125 44.109375 C38.00884791 43.0398283 35.92905749 41.95066441 33.70703125 40.609375 C33.04856201 40.22716797 32.39009277 39.84496094 31.71166992 39.45117188 C27.5610987 37.02896526 23.44868248 34.54254561 19.32844543 32.06921387 C16.89867341 30.61203522 14.46633075 29.15916716 12.03427124 27.70581055 C10.22674291 26.62120298 8.42532628 25.52694891 6.62426758 24.43164062 C4.94240356 23.42133789 4.94240356 23.42133789 3.2265625 22.390625 C2.22343018 21.78283203 1.22029785 21.17503906 0.18676758 20.54882812 C-3.52886528 18.60768773 -3.52886528 18.60768773 -7.60546875 18.109375 C-10.66302813 19.18122439 -13.47302614 20.6605571 -16.3359375 22.16796875 C-17.16756912 22.59110855 -17.99920074 23.01424835 -18.85603333 23.45021057 C-21.5086189 24.80268957 -24.15096374 26.17385885 -26.79296875 27.546875 C-29.44733002 28.91280456 -32.10363931 30.27477548 -34.76203918 31.63282776 C-36.41525481 32.47881669 -38.0658057 33.33003668 -39.71342468 34.18687439 C-40.45792374 34.57049637 -41.20242279 34.95411835 -41.96948242 35.34936523 C-42.62502609 35.6899144 -43.28056976 36.03046356 -43.95597839 36.3813324 C-45.60546875 37.109375 -45.60546875 37.109375 -47.60546875 37.109375 C-47.57404785 38.16326416 -47.54262695 39.21715332 -47.51025391 40.30297852 C-47.40113018 44.23690869 -47.33258473 48.17070697 -47.27587891 52.10571289 C-47.24582318 53.8041844 -47.20496528 55.50250219 -47.15283203 57.20043945 C-47.0795111 59.65093995 -47.04590337 62.09937883 -47.01953125 64.55078125 C-46.98856354 65.30210831 -46.95759583 66.05343536 -46.9256897 66.82752991 C-46.92237476 72.09574624 -48.29833614 74.81648625 -51.95269775 78.59715271 C-54.20687009 80.65963424 -56.52290348 82.46464946 -59.046875 84.1875 C-60.04267578 84.87328125 -61.03847656 85.5590625 -62.06445312 86.265625 C-63.08861328 86.9565625 -64.11277344 87.6475 -65.16796875 88.359375 C-66.19599609 89.06578125 -67.22402344 89.7721875 -68.28320312 90.5 C-71.04499023 92.39011483 -73.80884099 94.27120599 -76.60546875 96.109375 C-77.43449707 96.66512207 -78.26352539 97.22086914 -79.11767578 97.79345703 C-83.54711117 100.13640666 -87.740954 99.95433586 -92.60546875 99.109375 C-96.66027633 97.34543898 -100.17047625 95.00414935 -103.79296875 92.484375 C-104.72560547 91.86691406 -105.65824219 91.24945313 -106.61914062 90.61328125 C-111.51075746 87.34761998 -116.27294286 83.93308887 -120.94262695 80.35791016 C-122.45744636 79.22051676 -124.02932266 78.16013906 -125.60546875 77.109375 C-126.15574234 77.3856221 -126.70601593 77.6618692 -127.27296448 77.94648743 C-133.130629 80.88659695 -138.98983723 83.82361395 -144.84985352 86.7590332 C-147.02112946 87.84714743 -149.19204263 88.93598591 -151.36254883 90.02563477 C-163.77326947 96.25545396 -176.21699284 102.39775614 -188.75823975 108.36087036 C-196.91237127 112.24105604 -204.97818059 116.27568671 -213.02148438 120.38085938 C-213.99408203 120.87263672 -214.96667969 121.36441406 -215.96875 121.87109375 C-217.24165894 122.520177 -217.24165894 122.520177 -218.5402832 123.18237305 C-220.60546875 124.109375 -220.60546875 124.109375 -222.60546875 124.109375 C-222.5965863 124.77700867 -222.58770386 125.44464233 -222.57855225 126.13250732 C-222.49012402 133.07523038 -222.42975299 140.01779371 -222.38574219 146.9609375 C-222.365615 149.55280046 -222.33831059 152.14461796 -222.30371094 154.73632812 C-222.25524374 158.45974949 -222.23251059 162.18257099 -222.21484375 165.90625 C-222.19419861 167.06678894 -222.17355347 168.22732788 -222.15228271 169.42303467 C-222.15198059 170.50385315 -222.15167847 171.58467163 -222.15136719 172.69824219 C-222.14248474 173.64866394 -222.13360229 174.59908569 -222.12445068 175.57830811 C-222.74773086 178.85794338 -224.04577241 180.03999341 -226.60546875 182.109375 C-229.34509163 182.83708733 -231.83761014 182.68909077 -234.60546875 182.109375 C-237.03666498 180.23922406 -238.24616048 178.82799155 -239.60546875 176.109375 C-239.71168032 174.28770342 -239.75427597 172.4621748 -239.76660156 170.63745117 C-239.77620911 169.49253708 -239.78581665 168.34762299 -239.79571533 167.16801453 C-239.79996521 165.92534317 -239.80421509 164.68267181 -239.80859375 163.40234375 C-239.81429382 162.12966141 -239.8199939 160.85697906 -239.8258667 159.54573059 C-239.83532805 156.84807762 -239.84221889 154.1505362 -239.84570312 151.45288086 C-239.85118055 148.00281066 -239.87519195 144.55313659 -239.90367508 141.10319042 C-239.92682843 137.80710494 -239.92875329 134.51099917 -239.93359375 131.21484375 C-239.94594055 129.97824509 -239.95828735 128.74164642 -239.9710083 127.46757507 C-239.9680072 126.3132045 -239.9650061 125.15883392 -239.96191406 123.96948242 C-239.96555969 122.95625412 -239.96920532 121.94302582 -239.97296143 120.89909363 C-239.51678974 117.4361929 -238.81179341 115.83837657 -236.60546875 113.109375 C-231.11766647 108.91654472 -224.67863355 106.00799152 -218.51757812 102.9519043 C-217.54105286 102.46349564 -216.56452759 101.97508698 -215.55841064 101.47187805 C-212.35722988 99.87197966 -209.15326051 98.27775372 -205.94921875 96.68359375 C-203.71845315 95.57007767 -201.48786488 94.45620624 -199.25744629 93.34199524 C-193.40671225 90.4204334 -187.5535911 87.50368594 -181.69995117 84.58795166 C-175.71886717 81.60821272 -169.74049946 78.62302866 -163.76171875 75.63867188 C-152.04519152 69.7911103 -140.32621296 63.94847915 -128.60546875 58.109375 C-128.59088623 57.31764893 -128.57630371 56.52592285 -128.5612793 55.71020508 C-128.48668519 52.11360957 -128.39006042 48.51793057 -128.29296875 44.921875 C-128.27041016 43.67599609 -128.24785156 42.43011719 -128.22460938 41.14648438 C-128.17143555 39.3434082 -128.17143555 39.3434082 -128.1171875 37.50390625 C-128.09100342 36.39893799 -128.06481934 35.29396973 -128.0378418 34.15551758 C-127.30585607 28.99855207 -124.70989785 25.66730349 -120.66162109 22.47070312 C-115.85453731 19.28805065 -110.59066558 16.88195044 -105.41796875 14.359375 C-104.21775238 13.76502228 -103.01787945 13.16997549 -101.81835938 12.57421875 C-89.76111644 6.62424634 -89.76111644 6.62424634 -82.60546875 7.109375 C-77.60628788 9.31130976 -73.07541751 12.24355422 -68.48046875 15.171875 C-67.08310762 16.06028901 -65.68470225 16.94706313 -64.28515625 17.83203125 C-63.67397949 18.22140869 -63.06280273 18.61078613 -62.43310547 19.01196289 C-61.82998535 19.37410889 -61.22686523 19.73625488 -60.60546875 20.109375 C-59.97447266 20.52848145 -59.34347656 20.94758789 -58.69335938 21.37939453 C-56.56605787 22.3500996 -56.56605787 22.3500996 -54.20556641 21.40942383 C-53.3191748 20.96622803 -52.4327832 20.52303223 -51.51953125 20.06640625 C-50.51647949 19.57430664 -49.51342773 19.08220703 -48.47998047 18.57519531 C-47.4076416 18.02959961 -46.33530273 17.48400391 -45.23046875 16.921875 C-44.12590332 16.37756836 -43.02133789 15.83326172 -41.88330078 15.27246094 C-36.32790554 12.52531362 -30.81177642 9.70551791 -25.30859375 6.85546875 C-24.32552246 6.35104248 -23.34245117 5.84661621 -22.32958984 5.3269043 C-20.47111405 4.36963797 -18.61943995 3.3990145 -16.77587891 2.41333008 C-10.9588009 -0.59310582 -6.50084829 -2.22217903 0 0 Z " fill="#FBFBFA" transform="translate(239.60546875,0.890625)"/>
<path d="M0 0 C3.20716192 2.35763467 3.93680439 3.58611961 4.54589844 7.57519531 C4.58697019 8.99240141 4.60696586 10.41032592 4.609375 11.828125 C4.63417938 12.95163361 4.63417938 12.95163361 4.65948486 14.09783936 C4.7079351 16.48197654 4.72932772 18.86547611 4.75 21.25 C4.7781624 22.86982369 4.80809022 24.48961772 4.83984375 26.109375 C4.91369244 30.07286414 4.96328457 34.03599998 5 38 C6.33961792 38.7113208 6.33961792 38.7113208 7.70629883 39.43701172 C11.02257335 41.19844611 14.33774449 42.9619483 17.65258789 44.72607422 C19.08685827 45.48900814 20.52142642 46.25138253 21.95629883 47.01318359 C24.01983099 48.10887703 26.08228052 49.20658454 28.14453125 50.3046875 C28.78526077 50.6443454 29.4259903 50.9840033 30.08613586 51.33395386 C32.81721985 52.79039455 35.42167686 54.28111791 38 56 C38.33999023 55.58024902 38.67998047 55.16049805 39.03027344 54.72802734 C44.65409508 48.43470312 51.77109886 45.20310372 59.25 41.625 C60.542289 40.99215466 61.83396136 40.3580485 63.125 39.72265625 C75.81370857 33.5127938 75.81370857 33.5127938 83 34 C88.00302148 35.93298557 92.42240849 39.12705727 96.9140625 42.03125 C99.08362185 43.41537394 101.25618631 44.76869086 103.4609375 46.09375 C104.039646 46.44284424 104.61835449 46.79193848 105.21459961 47.15161133 C106.85831826 48.13989221 108.50525307 49.12281805 110.15234375 50.10546875 C113.98476806 52.65516119 116.52751647 54.58254942 118 59 C118.10933558 60.33341492 118.16842126 61.67136665 118.19287109 63.0090332 C118.20893402 63.81029129 118.22499695 64.61154938 118.24154663 65.43708801 C118.28619054 69.09598761 118.32705502 72.7547099 118.35009766 76.41381836 C118.36665413 78.34102456 118.39394018 80.26816943 118.43212891 82.19506836 C118.48701444 84.98062839 118.50878814 87.76475268 118.5234375 90.55078125 C118.54610687 91.40722733 118.56877625 92.2636734 118.59213257 93.14607239 C118.57738085 97.34230945 118.35570221 100.11072118 115.66064453 103.43701172 C112.78694371 106.20523627 109.78922711 108.57340891 106.5 110.8125 C105.89704102 111.23265381 105.29408203 111.65280762 104.67285156 112.08569336 C103.41793156 112.95861728 102.16041634 113.82782163 100.90039062 114.69335938 C99.01546043 115.98936996 97.13951029 117.29745742 95.265625 118.609375 C83.72077497 126.67157057 83.72077497 126.67157057 76.25 126.59375 C70.28074338 125.50321273 65.71454221 121.81681179 60.88525391 118.33496094 C58.93684279 116.95527796 56.9542595 115.64739252 54.94921875 114.3515625 C53.9442334 113.69969971 53.9442334 113.69969971 52.91894531 113.03466797 C51.63402561 112.20159164 50.34826796 111.36980577 49.06152344 110.53955078 C39.80571286 104.41713859 39.80571286 104.41713859 38 99 C38.12717558 97.37307233 38.31029569 95.75020467 38.52734375 94.1328125 C39.07018106 87.87708409 39.40272204 81.91255006 37 76 C31.49149751 70.22775788 23.54717859 67.48284091 16.31640625 64.45605469 C11.07804182 62.15617207 6.18734936 59.31528187 1.25 56.4375 C0.37633789 55.94805908 -0.49732422 55.45861816 -1.39746094 54.9543457 C-11.20126732 49.39619803 -11.20126732 49.39619803 -13 44 C-13.12110727 41.18187044 -13.18815045 38.38925304 -13.203125 35.5703125 C-13.20882507 34.742966 -13.21452515 33.91561951 -13.22039795 33.0632019 C-13.22984023 31.31314368 -13.23637887 29.56306773 -13.24023438 27.81298828 C-13.24993847 25.14193569 -13.28096785 22.47165325 -13.3125 19.80078125 C-13.31903058 18.09896289 -13.32428084 16.39713904 -13.328125 14.6953125 C-13.3404718 13.89932648 -13.3528186 13.10334045 -13.36553955 12.28323364 C-13.34721603 7.69958614 -12.96385426 4.72962184 -10 1 C-6.87057535 -0.56471233 -3.38917777 -0.69701958 0 0 Z " fill="#FBFBFA" transform="translate(13,354)"/>
<path d="M0 0 C0.02730462 1.87491693 0.04653244 3.74995225 0.0625 5.625 C0.07410156 6.66914063 0.08570313 7.71328125 0.09765625 8.7890625 C0.00146732 11.95175446 -0.45107781 14.88880778 -1 18 C-1.98806641 17.99476318 -2.97613281 17.98952637 -3.99414062 17.98413086 C-7.6917224 17.96590679 -11.38930028 17.9545049 -15.08691406 17.94506836 C-16.68132192 17.94006769 -18.27572525 17.93326499 -19.87011719 17.92456055 C-22.17383954 17.9123067 -24.47750078 17.9067289 -26.78125 17.90234375 C-27.48366821 17.89718246 -28.18608643 17.89202118 -28.90979004 17.88670349 C-33.68790719 17.88617284 -38.27567154 18.25930486 -43 19 C-44.31968178 20.10528442 -44.31968178 20.10528442 -44.25 22.875 C-44.28447188 25.89705064 -44.28447188 25.89705064 -42.86572266 27.53979492 C-40.37504418 29.48912075 -37.86445162 30.39106891 -34.8984375 31.48828125 C-33.07892578 32.17760742 -33.07892578 32.17760742 -31.22265625 32.88085938 C-29.30879543 33.59508475 -27.39365479 34.30562024 -25.47705078 35.01245117 C-5.0822614 42.57108122 -5.0822614 42.57108122 0.83984375 52.46875 C5.16999499 61.9163527 4.37676979 72.09866991 2 82 C-0.27490931 87.64893211 -3.50739196 91.25369598 -9 94 C-17.76372613 97.23796 -26.40357271 97.47657302 -35.625 97.375 C-36.68016815 97.37051346 -36.68016815 97.37051346 -37.75665283 97.36593628 C-62.51549741 97.24225129 -62.51549741 97.24225129 -71 93 C-71.02740022 91.14591875 -71.04657422 89.29171531 -71.0625 87.4375 C-71.07410156 86.40496094 -71.08570313 85.37242187 -71.09765625 84.30859375 C-71 81 -71 81 -70 74 C-47.725 73.505 -47.725 73.505 -25 73 C-24.31649667 66.47507155 -24.31649667 66.47507155 -26.65356445 63.71264648 C-29.22225053 61.83778093 -31.56863909 60.72146773 -34.54296875 59.59765625 C-35.61740234 59.18193359 -36.69183594 58.76621094 -37.79882812 58.33789062 C-38.91708984 57.91701172 -40.03535156 57.49613281 -41.1875 57.0625 C-64.71222076 48.13552385 -64.71222076 48.13552385 -70.63671875 36.89453125 C-72.50278631 32.35095772 -72.4775498 27.91580759 -72.4375 23.0625 C-72.45748047 22.20720703 -72.47746094 21.35191406 -72.49804688 20.47070312 C-72.49273178 13.50261414 -70.71861913 8.52106142 -66.46484375 3.01171875 C-51.12027538 -10.29213976 -17.79298263 -7.24899292 0 0 Z " fill="#D18206" transform="translate(267,206)"/>
<path d="M0 0 C5.0995296 1.60670111 8.88766159 4.71931567 13.0625 7.9375 C13.76955078 8.47568359 14.47660156 9.01386719 15.20507812 9.56835938 C16.55527229 10.5965354 17.90384232 11.62684906 19.25048828 12.65966797 C21.15683929 14.12015737 23.07461051 15.56470965 25 17 C24.07908232 20.31985138 23.34767966 21.75150169 20.5078125 23.78125 C19.39148438 24.3484375 18.27515625 24.915625 17.125 25.5 C16.48062988 25.82983887 15.83625977 26.15967773 15.17236328 26.49951172 C7.29365383 30.46829789 -0.74893866 34.1141301 -8.76318359 37.79882812 C-17.39123046 41.76781229 -25.95851601 45.84830358 -34.5 50 C-44.46155025 54.83505916 -54.45638593 59.58788344 -64.5 64.25 C-65.68142578 64.79914063 -66.86285156 65.34828125 -68.08007812 65.9140625 C-74.27990535 68.78280228 -74.27990535 68.78280228 -77 70 C-77.83724609 70.3825293 -78.67449219 70.76505859 -79.53710938 71.15917969 C-82 72 -82 72 -87 72 C-87 61.77 -87 51.54 -87 41 C-84.36 40.34 -81.72 39.68 -79 39 C-76.95318326 38.14627342 -74.93224589 37.22727813 -72.9453125 36.2421875 C-71.84485596 35.70295654 -70.74439941 35.16372559 -69.6105957 34.6081543 C-68.46034912 34.03621338 -67.31010254 33.46427246 -66.125 32.875 C-63.70656079 31.68702419 -61.2851792 30.50512465 -58.86328125 29.32421875 C-57.68846191 28.75106934 -56.51364258 28.17791992 -55.30322266 27.58740234 C-51.01275609 25.52556837 -46.6777197 23.58469916 -42.3125 21.6875 C-34.74940736 18.38615004 -27.37946024 14.77487707 -20.02929688 11.02636719 C-17.8654034 9.93192444 -15.69198112 8.85849503 -13.515625 7.7890625 C-12.78102051 7.42683594 -12.04641602 7.06460937 -11.28955078 6.69140625 C-9.87783962 5.99590046 -8.46481014 5.30306228 -7.05029297 4.61328125 C-4.34452264 3.27383192 -2.15044058 2.15044058 0 0 Z " fill="#127396" transform="translate(318,306)"/>
<path d="M0 0 C0.86753906 -0.01998047 1.73507813 -0.03996094 2.62890625 -0.06054688 C3.87994141 -0.05958008 3.87994141 -0.05958008 5.15625 -0.05859375 C6.29803711 -0.06137329 6.29803711 -0.06137329 7.46289062 -0.06420898 C9.5 0.4375 9.5 0.4375 11.13012695 1.99243164 C12.92965503 5.2043856 13.85010275 8.51517471 14.76171875 12.0546875 C14.95723831 12.7894632 15.15275787 13.52423889 15.35420227 14.28128052 C15.7643842 15.83170671 16.17007103 17.38332826 16.5715332 18.93603516 C17.18442758 21.30064629 17.81472409 23.66010951 18.44726562 26.01953125 C18.84480126 27.53097389 19.24131938 29.0426846 19.63671875 30.5546875 C19.8241716 31.25488007 20.01162445 31.95507263 20.20475769 32.67648315 C21.22940869 36.68690803 21.69209886 40.30153501 21.5 44.4375 C22.16 44.4375 22.82 44.4375 23.5 44.4375 C23.52723145 43.9005249 23.55446289 43.3635498 23.58251953 42.81030273 C24.14403958 35.19693548 25.90795364 27.96234878 27.82861328 20.60327148 C28.3794665 18.48280658 28.91091177 16.35806008 29.44140625 14.23242188 C29.7905126 12.87470274 30.14073253 11.51726933 30.4921875 10.16015625 C30.96180908 8.33109741 30.96180908 8.33109741 31.44091797 6.46508789 C32.45986343 3.55223804 32.9625638 2.14054046 35.5 0.4375 C37.53710938 0.04931641 37.53710938 0.04931641 39.84375 0.0390625 C40.67777344 0.03519531 41.51179688 0.03132812 42.37109375 0.02734375 C43.67240234 0.04474609 43.67240234 0.04474609 45 0.0625 C45.86753906 0.05089844 46.73507813 0.03929687 47.62890625 0.02734375 C48.87994141 0.03314453 48.87994141 0.03314453 50.15625 0.0390625 C50.91744141 0.04244629 51.67863281 0.04583008 52.46289062 0.04931641 C54.5 0.4375 54.5 0.4375 56.22583008 1.45922852 C58.23051847 4.57170027 58.09798477 7.89014379 58.23046875 11.48828125 C58.27070663 12.29129669 58.31094452 13.09431213 58.35240173 13.92166138 C58.47867322 16.53066494 58.58373419 19.14001237 58.6875 21.75 C58.76805931 23.52940817 58.84927732 25.30878665 58.93115234 27.08813477 C59.48172246 39.53953911 59.75463826 51.9743718 59.5 64.4375 C54.88 64.4375 50.26 64.4375 45.5 64.4375 C44.51 40.6775 44.51 40.6775 43.5 16.4375 C41.55581804 20.32586392 40.47437277 24.01522939 39.44140625 28.1953125 C39.05184019 29.72276034 38.66185364 31.25010099 38.27148438 32.77734375 C37.66330769 35.17704292 37.0587719 37.57750026 36.46166992 39.97998047 C35.88184586 42.30449821 35.28770939 44.62497607 34.69140625 46.9453125 C34.5163002 47.66615021 34.34119415 48.38698792 34.16078186 49.12966919 C32.84037214 54.21058524 32.84037214 54.21058524 29.5 56.4375 C26.25 56.703125 26.25 56.703125 22.5 56.6875 C21.2625 56.69265625 20.025 56.6978125 18.75 56.703125 C15.5 56.4375 15.5 56.4375 12.5 54.4375 C11.47265625 51.61523438 11.47265625 51.61523438 10.5625 48.03125 C10.3962915 47.39191528 10.23008301 46.75258057 10.05883789 46.09387207 C9.52830333 44.04437397 9.01368572 41.9912791 8.5 39.9375 C7.98302626 37.91325196 7.46276028 35.88988232 6.94116211 33.86682129 C6.46439065 32.01092539 5.99562612 30.15297791 5.52734375 28.29492188 C4.28938365 23.64668766 2.88221879 19.04489598 1.5 14.4375 C0.84 30.9375 0.18 47.4375 -0.5 64.4375 C-5.12 64.4375 -9.74 64.4375 -14.5 64.4375 C-14.60245016 51.46485856 -14.41695079 38.53597935 -13.81030273 25.57641602 C-13.68489185 22.81762595 -13.57990154 20.05845101 -13.47460938 17.29882812 C-13.39447154 15.53119324 -13.31313923 13.763612 -13.23046875 11.99609375 C-13.20220505 11.17749374 -13.17394135 10.35889374 -13.14482117 9.51548767 C-12.84700409 3.86005181 -12.84700409 3.86005181 -11.09455872 1.72607422 C-7.97812352 -0.79233919 -3.83816306 -0.03136686 0 0 Z " fill="#8D8C8B" transform="translate(48.5,223.5625)"/>
<path d="M0 0 C0.06058594 0.86882813 0.12117188 1.73765625 0.18359375 2.6328125 C0.26738281 3.78523438 0.35117188 4.93765625 0.4375 6.125 C0.51871094 7.26195313 0.59992188 8.39890625 0.68359375 9.5703125 C0.97742754 12.75532567 1.45693914 15.84986047 2 19 C-4.41327947 22.21958003 -10.82829245 25.43568746 -17.24438477 28.6496582 C-19.41566071 29.73777243 -21.58657388 30.82661091 -23.75708008 31.91625977 C-36.16780072 38.14607896 -48.61152409 44.28838114 -61.152771 50.25149536 C-69.30690252 54.13168104 -77.37271184 58.16631171 -85.41601562 62.27148438 C-86.38861328 62.76326172 -87.36121094 63.25503906 -88.36328125 63.76171875 C-89.63619019 64.410802 -89.63619019 64.410802 -90.93481445 65.07299805 C-93 66 -93 66 -95 66 C-94.99111755 66.66763367 -94.98223511 67.33526733 -94.9730835 68.02313232 C-94.88465527 74.96585538 -94.82428424 81.90841871 -94.78027344 88.8515625 C-94.76014625 91.44342546 -94.73284184 94.03524296 -94.69824219 96.62695312 C-94.64977499 100.35037449 -94.62704184 104.07319599 -94.609375 107.796875 C-94.58872986 108.95741394 -94.56808472 110.11795288 -94.54681396 111.31365967 C-94.54651184 112.39447815 -94.54620972 113.47529663 -94.54589844 114.58886719 C-94.53701599 115.53928894 -94.52813354 116.48971069 -94.51898193 117.46893311 C-95.14226211 120.74856838 -96.44030366 121.93061841 -99 124 C-101.73962288 124.72771233 -104.23214139 124.57971577 -107 124 C-109.43119623 122.12984906 -110.64069173 120.71861655 -112 118 C-112.10621157 116.17832842 -112.14880722 114.3527998 -112.16113281 112.52807617 C-112.17074036 111.38316208 -112.1803479 110.23824799 -112.19024658 109.05863953 C-112.19449646 107.81596817 -112.19874634 106.57329681 -112.203125 105.29296875 C-112.20882507 104.02028641 -112.21452515 102.74760406 -112.22039795 101.43635559 C-112.2298593 98.73870262 -112.23675014 96.0411612 -112.24023438 93.34350586 C-112.2457118 89.89343566 -112.2697232 86.44376159 -112.29820633 82.99381542 C-112.32135968 79.69772994 -112.32328454 76.40162417 -112.328125 73.10546875 C-112.3404718 71.86887009 -112.3528186 70.63227142 -112.36553955 69.35820007 C-112.36253845 68.2038295 -112.35953735 67.04945892 -112.35644531 65.86010742 C-112.36009094 64.84687912 -112.36373657 63.83365082 -112.36749268 62.78971863 C-111.91132099 59.3268179 -111.20632466 57.72900157 -109 55 C-103.51564357 50.81124105 -97.08254491 47.90069893 -90.92797852 44.8425293 C-89.95305954 44.35412064 -88.97814056 43.86571198 -87.97367859 43.36250305 C-84.77735737 41.76250228 -81.57821045 40.16824538 -78.37890625 38.57421875 C-76.1505651 37.46064461 -73.92237207 36.34677403 -71.69432068 35.23262024 C-67.03971684 32.90609823 -62.38378629 30.58226065 -57.72680664 28.26049805 C-52.3388044 25.57418001 -46.95276431 22.88397463 -41.56797844 20.19121617 C-36.38014852 17.59699662 -31.19116063 15.00510262 -26.00156975 12.41440773 C-23.79440154 11.31241909 -21.58747835 10.20993956 -19.38080025 9.10696983 C-16.31028964 7.57279194 -13.23848002 6.04124882 -10.16625977 4.51049805 C-8.78789444 3.82097549 -8.78789444 3.82097549 -7.38168335 3.11752319 C-6.13484016 2.49730034 -6.13484016 2.49730034 -4.86280823 1.86454773 C-4.13668618 1.50232463 -3.41056414 1.14010153 -2.66243839 0.76690197 C-1 0 -1 0 0 0 Z " fill="#D18206" transform="translate(112,59)"/>
<path d="M0 0 C4.69813966 3.17242989 4.69813966 3.17242989 9.875 5.4375 C9.875 6.0975 9.875 6.7575 9.875 7.4375 C12.35 8.4275 12.35 8.4275 14.875 9.4375 C14.99858454 14.22459468 15.08932771 19.01076181 15.1496582 23.79907227 C15.17480568 25.4278175 15.20892878 27.05644985 15.25219727 28.68481445 C15.3128455 31.02583634 15.34120476 33.36536731 15.36328125 35.70703125 C15.38908768 36.43525589 15.4148941 37.16348053 15.44148254 37.91377258 C15.44262695 39.97583008 15.44262695 39.97583008 14.875 43.4375 C12.45920924 45.4291237 11.02788566 46.4375 7.875 46.4375 C7.875 47.0975 7.875 47.7575 7.875 48.4375 C5.75 49.953125 5.75 49.953125 2.875 51.6875 C-1.48617627 54.34675382 -5.38337857 57.14898271 -9.17578125 60.56640625 C-11.125 61.4375 -11.125 61.4375 -14.03125 60.7890625 C-17.01899634 59.48380968 -19.59555798 58.0462234 -22.3125 56.25 C-23.72402344 55.32574219 -23.72402344 55.32574219 -25.1640625 54.3828125 C-26.14117187 53.74085938 -27.11828125 53.09890625 -28.125 52.4375 C-31.05063613 50.59323824 -33.98002691 48.75507997 -36.91015625 46.91796875 C-39.125 45.4375 -39.125 45.4375 -41.125 43.4375 C-41.30017747 40.71264272 -41.35649133 38.09090638 -41.3203125 35.3671875 C-41.3174826 34.57095978 -41.31465271 33.77473206 -41.31173706 32.95437622 C-41.3005264 30.40693237 -41.27542062 27.85983789 -41.25 25.3125 C-41.23997133 23.58724465 -41.23084528 21.86198381 -41.22265625 20.13671875 C-41.20058422 15.90351086 -41.16604867 11.6705647 -41.125 7.4375 C-12.21894802 -8.141678 -12.21894802 -8.141678 0 0 Z " fill="#147597" transform="translate(462.125,151.5625)"/>
<path d="M0 0 C1.17949219 0.00193359 1.17949219 0.00193359 2.3828125 0.00390625 C8.96580801 1.14922365 14.75955356 5.77841212 20.3125 9.3125 C21.13298828 9.82941406 21.95347656 10.34632813 22.79882812 10.87890625 C25.16936968 12.38106905 27.52594204 13.90198843 29.875 15.4375 C30.56352051 15.88512695 31.25204102 16.33275391 31.96142578 16.79394531 C35.29086946 19.04690047 37.4041798 20.68795345 38.875 24.4375 C39.13569641 26.44139099 39.13569641 26.44139099 39.1496582 28.57592773 C39.15919022 29.38033798 39.16872223 30.18474823 39.17854309 31.01353455 C39.17763168 31.87402908 39.17672028 32.73452362 39.17578125 33.62109375 C39.18006638 34.51361343 39.1843515 35.40613312 39.18876648 36.32569885 C39.19450264 38.21102043 39.1950153 40.09636414 39.19067383 41.98168945 C39.18751511 44.86122517 39.21097732 47.73973197 39.23632812 50.61914062 C39.23860136 52.45312371 39.2393045 54.28710954 39.23828125 56.12109375 C39.247491 56.97956406 39.25670074 57.83803436 39.26618958 58.72251892 C39.22961898 63.46389486 38.93652579 66.58105334 35.875 70.4375 C33.5 72.51953125 33.5 72.51953125 30.875 74.4375 C30.070625 75.03949219 29.26625 75.64148438 28.4375 76.26171875 C25.59114007 78.33140425 22.73610309 80.38823491 19.875 82.4375 C19.30523437 82.84822754 18.73546875 83.25895508 18.1484375 83.68212891 C16.39612455 84.94184507 14.63665948 86.19089778 12.875 87.4375 C11.8025 88.200625 10.73 88.96375 9.625 89.75 C6.875 91.4375 6.875 91.4375 3.875 91.4375 C3.545 90.7775 3.215 90.1175 2.875 89.4375 C-2.47936114 88.19373841 -2.47936114 88.19373841 -7.54296875 89.6328125 C-10.125 90.4375 -10.125 90.4375 -12.81640625 89.1640625 C-14.23759766 88.12378906 -14.23759766 88.12378906 -15.6875 87.0625 C-16.73164063 86.31613281 -17.77578125 85.56976563 -18.8515625 84.80078125 C-19.38942383 84.40842285 -19.92728516 84.01606445 -20.48144531 83.61181641 C-23.11369142 81.73108204 -25.84515038 80.00453562 -28.5625 78.25 C-33.65126639 74.96134145 -37.74425501 71.50861748 -41.125 66.4375 C-41.38569641 64.43997192 -41.38569641 64.43997192 -41.3996582 62.13720703 C-41.40919022 61.272659 -41.41872223 60.40811096 -41.42854309 59.5173645 C-41.42763168 58.58608734 -41.42672028 57.65481018 -41.42578125 56.6953125 C-41.43006638 55.73478973 -41.4343515 54.77426697 -41.43876648 53.78463745 C-41.44451078 51.75210356 -41.44500931 49.71954911 -41.44067383 47.68701172 C-41.43751914 44.58134722 -41.4609536 41.47664007 -41.48632812 38.37109375 C-41.48860167 36.39583453 -41.48930436 34.42057276 -41.48828125 32.4453125 C-41.497491 31.5180838 -41.50670074 30.5908551 -41.51618958 29.63552856 C-41.48129776 24.75727514 -41.34669323 21.36952934 -38.125 17.4375 C-33.4342707 13.77506872 -28.12568649 11.41403481 -22.75 8.9375 C-21.11679372 8.17792946 -19.48397718 7.41752031 -17.8515625 6.65625 C-17.0589502 6.28959229 -16.26633789 5.92293457 -15.44970703 5.54516602 C-13.21434383 4.48007015 -11.03291276 3.33991415 -8.84375 2.18359375 C-5.81145572 0.6587353 -3.45039385 -0.08540579 0 0 Z M-7.5625 15.4375 C-8.19865234 15.71722656 -8.83480469 15.99695313 -9.49023438 16.28515625 C-16.2173933 19.31139522 -22.65723802 22.9002583 -29.125 26.4375 C-29.24871396 31.49112021 -29.33939046 36.54385702 -29.3996582 41.59863281 C-29.42478367 43.31753901 -29.45889047 45.03633856 -29.50219727 46.75488281 C-29.56294029 49.22748114 -29.59122762 51.69866606 -29.61328125 54.171875 C-29.63908768 54.93868591 -29.6648941 55.70549683 -29.69148254 56.49554443 C-29.69351456 60.37198702 -29.52279569 62.03294117 -26.75561523 64.84716797 C-25.88751221 65.37197754 -25.01940918 65.89678711 -24.125 66.4375 C-23.27421875 67.00210938 -22.4234375 67.56671875 -21.546875 68.1484375 C-20.22429687 68.97214844 -20.22429687 68.97214844 -18.875 69.8125 C-14.55608406 72.51327762 -10.34651397 75.32182277 -6.1953125 78.2734375 C-3.69236319 79.68075617 -2.01188627 80.34038762 0.875 80.4375 C3.35562063 78.76929011 3.35562063 78.76929011 5.875 76.4375 C7.04402893 75.6523463 8.22878885 74.89026238 9.42578125 74.1484375 C10.04130859 73.76429688 10.65683594 73.38015625 11.29101562 72.984375 C12.5729702 72.19223005 13.85688303 71.40324684 15.14257812 70.6171875 C16.75312318 69.60825346 18.31876349 68.52833967 19.875 67.4375 C19.875 66.7775 19.875 66.1175 19.875 65.4375 C20.65875 65.128125 21.4425 64.81875 22.25 64.5 C24.79830128 63.50874962 24.79830128 63.50874962 26.875 62.4375 C26.875 51.2175 26.875 39.9975 26.875 28.4375 C24.4 27.4475 24.4 27.4475 21.875 26.4375 C21.875 25.7775 21.875 25.1175 21.875 24.4375 C21.16214844 24.06238281 20.44929688 23.68726563 19.71484375 23.30078125 C10.93264388 18.60827338 10.93264388 18.60827338 6.9375 15.625 C1.27067759 11.57726971 -1.44342328 12.60426755 -7.5625 15.4375 Z " fill="#F8FCFC" transform="translate(450.125,132.5625)"/>
<path d="M0 0 C2.3125 1.6875 2.3125 1.6875 5 4 C6.40069897 4.81958707 7.81936923 5.60885631 9.25 6.375 C20.39781022 12.39781022 20.39781022 12.39781022 24 16 C27.35962564 43.14041763 27.35962564 43.14041763 22.50585938 51.60595703 C18.44100798 55.8079082 13.472269 58.12831321 8 60 C5.15971521 60.9365854 5.15971521 60.9365854 3 62 C2.67 62.99 2.34 63.98 2 65 C-0.33078141 66.66484387 -1.52097126 67.05811168 -4.3828125 66.7109375 C-7.12990099 65.96471346 -8.81580223 65.01690107 -11.125 63.375 C-15.51378391 60.32417032 -19.99277561 57.45475124 -24.51953125 54.61328125 C-25.33808594 54.08089844 -26.15664062 53.54851562 -27 53 C-27.70310303 52.64019043 -28.40620605 52.28038086 -29.13061523 51.90966797 C-31.54782716 49.44036776 -31.4545959 47.5336487 -31.45318604 44.17134094 C-31.43254089 43.39936874 -31.41189575 42.62739655 -31.390625 41.83203125 C-31.38496521 41.03721848 -31.37930542 40.2424057 -31.37347412 39.42350769 C-31.35109004 36.88589134 -31.30089262 34.3496892 -31.25 31.8125 C-31.2299375 30.09181727 -31.21168629 28.37111241 -31.1953125 26.65039062 C-31.15121894 22.43304918 -31.08217965 18.21676431 -31 14 C-30.01 14 -29.02 14 -28 14 C-27.74855225 13.3827002 -27.49710449 12.76540039 -27.23803711 12.12939453 C-25.78366379 9.62790683 -24.8044341 9.08370027 -22.19140625 7.9296875 C-21.07088867 7.42115234 -21.07088867 7.42115234 -19.92773438 6.90234375 C-19.14720703 6.56332031 -18.36667969 6.22429688 -17.5625 5.875 C-16.02125079 5.1868738 -14.48085107 4.49684099 -12.94140625 3.8046875 C-11.91575562 3.35585205 -11.91575562 3.35585205 -10.86938477 2.89794922 C-3.86961478 -0.46435377 -3.86961478 -0.46435377 0 0 Z " fill="#8F8D8C" transform="translate(156,21)"/>
<path d="M0 0 C2.5 1.8125 2.5 1.8125 5 4 C6.99107248 5.01765927 8.99218823 6.01577854 11 7 C13.01219649 8.2081101 14.99413512 9.45638069 16.97265625 10.71875 C19.02839853 12.09287726 19.02839853 12.09287726 21.58300781 13.10571289 C24 15 24 15 24.6628418 18.39819336 C24.70257005 19.79489786 24.71285369 21.19264087 24.69921875 22.58984375 C24.70637405 23.33077774 24.71352936 24.07171173 24.72090149 24.83509827 C24.72868015 26.40103959 24.72366244 27.96708927 24.70678711 29.53295898 C24.68758378 31.92705533 24.72689735 34.31532632 24.77148438 36.70898438 C24.7717748 38.23177428 24.76863317 39.75456951 24.76171875 41.27734375 C24.77700119 41.99099594 24.79228363 42.70464813 24.80802917 43.43992615 C24.76049805 45.47241211 24.76049805 45.47241211 24 49 C21.15551758 51.34204102 21.15551758 51.34204102 18 53 C16.9275 53.7425 15.855 54.485 14.75 55.25 C12 57 12 57 10 57 C10 57.66 10 58.32 10 59 C7.734375 60.69140625 7.734375 60.69140625 4.75 62.5625 C3.28820312 63.49255859 3.28820312 63.49255859 1.796875 64.44140625 C-0.56819609 65.75937184 -2.36190757 66.54147441 -5 67 C-5.33 66.01 -5.66 65.02 -6 64 C-7.76786293 63.22595047 -7.76786293 63.22595047 -9.9375 62.75 C-14.83587964 61.27580613 -18.45747736 58.84495459 -22.54296875 55.81640625 C-25.01449559 53.88425597 -25.01449559 53.88425597 -28.11694336 52.41674805 C-31 50 -31 50 -31.68115234 46.14941406 C-31.68020681 44.60449195 -31.64655219 43.05935784 -31.5859375 41.515625 C-31.57744781 40.70003113 -31.56895813 39.88443726 -31.56021118 39.04412842 C-31.52668119 36.44472902 -31.45141109 33.84845779 -31.375 31.25 C-31.34489949 29.48572196 -31.31752382 27.72139518 -31.29296875 25.95703125 C-31.22689224 21.63681959 -31.1233802 17.31893967 -31 13 C-29.98172119 12.45730469 -28.96344238 11.91460937 -27.91430664 11.35546875 C-26.55875277 10.63281952 -25.20320285 9.91016288 -23.84765625 9.1875 C-23.17883423 8.83107422 -22.51001221 8.47464844 -21.82092285 8.10742188 C-18.83520845 6.51552768 -15.85194743 4.91992875 -12.87573242 3.31030273 C-4.83339161 -1.0116401 -4.83339161 -1.0116401 0 0 Z " fill="#8F8D8C" transform="translate(95,401)"/>
<path d="M0 0 C8.22830814 4.33199884 16.16847794 9.10077177 24.11328125 13.9296875 C30.14007333 17.58208493 36.25197633 21.08353078 42.39086914 24.54370117 C43.1358667 24.9688501 43.88086426 25.39399902 44.6484375 25.83203125 C45.30142822 26.20078369 45.95441895 26.56953613 46.62719727 26.94946289 C49.71644514 28.97695518 51.1808695 30.40734354 52.26953125 33.984375 C52.4197748 37.74046363 51.67797509 39.17351863 49.39453125 42.109375 C45.84823872 44.47357002 44.57536549 44.55425216 40.39453125 44.109375 C38.00884791 43.0398283 35.92905749 41.95066441 33.70703125 40.609375 C33.04856201 40.22716797 32.39009277 39.84496094 31.71166992 39.45117188 C27.5610987 37.02896526 23.44868248 34.54254561 19.32844543 32.06921387 C16.89867341 30.61203522 14.46633075 29.15916716 12.03427124 27.70581055 C10.22674291 26.62120298 8.42532628 25.52694891 6.62426758 24.43164062 C5.5030249 23.75810547 4.38178223 23.08457031 3.2265625 22.390625 C2.22343018 21.78283203 1.22029785 21.17503906 0.18676758 20.54882812 C-3.52886528 18.60768773 -3.52886528 18.60768773 -7.60546875 18.109375 C-10.66302813 19.18122439 -13.47302614 20.6605571 -16.3359375 22.16796875 C-17.16756912 22.59110855 -17.99920074 23.01424835 -18.85603333 23.45021057 C-21.5086189 24.80268957 -24.15096374 26.17385885 -26.79296875 27.546875 C-29.44733002 28.91280456 -32.10363931 30.27477548 -34.76203918 31.63282776 C-36.41525481 32.47881669 -38.0658057 33.33003668 -39.71342468 34.18687439 C-40.45792374 34.57049637 -41.20242279 34.95411835 -41.96948242 35.34936523 C-42.62502609 35.6899144 -43.28056976 36.03046356 -43.95597839 36.3813324 C-45.60546875 37.109375 -45.60546875 37.109375 -47.60546875 37.109375 C-47.75242188 36.50609375 -47.899375 35.9028125 -48.05078125 35.28125 C-49.59604483 29.56695298 -49.59604483 29.56695298 -53.79296875 25.671875 C-54.72109375 25.15625 -55.64921875 24.640625 -56.60546875 24.109375 C-56.60546875 23.449375 -56.60546875 22.789375 -56.60546875 22.109375 C-55.96335449 21.80346436 -55.32124023 21.49755371 -54.65966797 21.18237305 C-51.59891876 19.72266039 -48.53966742 18.25983435 -45.48046875 16.796875 C-44.35785645 16.2615918 -43.23524414 15.72630859 -42.07861328 15.17480469 C-36.44380312 12.47662341 -30.83939121 9.73930164 -25.29296875 6.86328125 C-24.31215332 6.35772705 -23.33133789 5.85217285 -22.32080078 5.33129883 C-20.46659017 4.37040526 -18.61825686 3.39805972 -16.77685547 2.4128418 C-10.95860512 -0.59193804 -6.50152695 -2.22241101 0 0 Z " fill="#D08207" transform="translate(239.60546875,0.890625)"/>
<path d="M0 0 C1.50916992 0.00193359 1.50916992 0.00193359 3.04882812 0.00390625 C8.17530387 0.06473457 12.52233539 0.33489582 17.3125 2.375 C16.9825 6.005 16.6525 9.635 16.3125 13.375 C14.37697266 13.32279297 14.37697266 13.32279297 12.40234375 13.26953125 C10.68490894 13.24137658 8.96745993 13.21407823 7.25 13.1875 C6.40244141 13.16236328 5.55488281 13.13722656 4.68164062 13.11132812 C-0.90599036 13.04660653 -4.74815451 13.70684236 -9.6875 16.375 C-14.48187316 22.69485553 -13.22718268 33.83062656 -12.34375 41.26953125 C-11.41285219 47.06137199 -11.41285219 47.06137199 -7.6875 51.375 C-4.68734088 52.37505304 -2.71326244 52.49075585 0.41796875 52.47265625 C1.89233398 52.46782227 1.89233398 52.46782227 3.39648438 52.46289062 C4.42064453 52.45451172 5.44480469 52.44613281 6.5 52.4375 C7.53576172 52.43298828 8.57152344 52.42847656 9.63867188 52.42382812 C12.19667266 52.4120401 14.75455733 52.39558515 17.3125 52.375 C18.51522819 54.78045638 18.41321472 56.32496953 18.375 59 C18.36597656 59.81726563 18.35695313 60.63453125 18.34765625 61.4765625 C18.33605469 62.10304688 18.32445312 62.72953125 18.3125 63.375 C12.46706252 65.89893674 6.75218155 65.74235207 0.5 65.75 C-0.54220703 65.77449219 -1.58441406 65.79898438 -2.65820312 65.82421875 C-10.95516094 65.85546906 -17.28153527 64.41075117 -23.5625 58.8125 C-28.90275535 51.48392459 -29.16826882 41.58329973 -29.0625 32.875 C-29.07410156 31.91980469 -29.08570313 30.96460938 -29.09765625 29.98046875 C-29.06608591 22.20364059 -28.28704288 13.42111669 -23.5625 6.9375 C-16.47797979 0.62303634 -9.22045828 -0.22707545 0 0 Z " fill="#8D8C8B" transform="translate(399.6875,226.625)"/>
<path d="M0 0 C3.20716192 2.35763467 3.93680439 3.58611961 4.54589844 7.57519531 C4.58697019 8.99240141 4.60696586 10.41032592 4.609375 11.828125 C4.63417938 12.95163361 4.63417938 12.95163361 4.65948486 14.09783936 C4.7079351 16.48197654 4.72932772 18.86547611 4.75 21.25 C4.7781624 22.86982369 4.80809022 24.48961772 4.83984375 26.109375 C4.91369244 30.07286414 4.96328457 34.03599998 5 38 C5.8878418 38.46374023 6.77568359 38.92748047 7.69042969 39.40527344 C10.99679872 41.13477447 14.2979541 42.87402875 17.59765625 44.61621094 C19.02399563 45.36756304 20.45171821 46.11629562 21.88085938 46.86230469 C23.939932 47.93772563 25.99377594 49.02260232 28.046875 50.109375 C28.68244324 50.43871033 29.31801147 50.76804565 29.97283936 51.10736084 C33.52026549 52.9984883 36.5156776 54.80455185 39 58 C39.36230469 60.10644531 39.36230469 60.10644531 39.171875 62.328125 C39.08486328 63.52695312 39.08486328 63.52695312 38.99609375 64.75 C38.91488281 65.575 38.83367188 66.4 38.75 67.25 C38.68425781 68.09046875 38.61851563 68.9309375 38.55078125 69.796875 C38.38617731 71.86618164 38.19560475 73.93339331 38 76 C26.23896202 70.39465261 14.96758924 63.97684786 3.66357422 57.51025391 C0.40268788 55.66132239 -2.88399643 53.8618483 -6.18041992 52.07714844 C-9.80337329 49.9324456 -11.67686524 47.96940427 -13 44 C-13.12110727 41.18187044 -13.18815045 38.38925304 -13.203125 35.5703125 C-13.20882507 34.742966 -13.21452515 33.91561951 -13.22039795 33.0632019 C-13.22984023 31.31314368 -13.23637887 29.56306773 -13.24023438 27.81298828 C-13.24993847 25.14193569 -13.28096785 22.47165325 -13.3125 19.80078125 C-13.31903058 18.09896289 -13.32428084 16.39713904 -13.328125 14.6953125 C-13.3404718 13.89932648 -13.3528186 13.10334045 -13.36553955 12.28323364 C-13.34721603 7.69958614 -12.96385426 4.72962184 -10 1 C-6.87057535 -0.56471233 -3.38917777 -0.69701958 0 0 Z " fill="#D18205" transform="translate(13,354)"/>
<path d="M0 0 C1.32 0 2.64 0 4 0 C4 10.23 4 20.46 4 31 C2.68 31 1.36 31 0 31 C0 20.77 0 10.54 0 0 Z " fill="#CAEBF3" transform="translate(231,347)"/>
<path d="M0 0 C1.32 0 2.64 0 4 0 C4 10.23 4 20.46 4 31 C2.68 31 1.36 31 0 31 C0 20.77 0 10.54 0 0 Z " fill="#CAEBF4" transform="translate(233,132)"/>
<path d="M0 0 C5.0995296 1.60670111 8.88766159 4.71931567 13.0625 7.9375 C14.12307617 8.74477539 14.12307617 8.74477539 15.20507812 9.56835938 C16.55527229 10.5965354 17.90384232 11.62684906 19.25048828 12.65966797 C21.15683929 14.12015737 23.07461051 15.56470965 25 17 C24.67 17.99 24.34 18.98 24 20 C21.16244957 18.65329896 18.62878965 17.13417315 16.06640625 15.3203125 C15.33486328 14.80339844 14.60332031 14.28648437 13.84960938 13.75390625 C13.09486328 13.21636719 12.34011719 12.67882812 11.5625 12.125 C10.81162109 11.59519531 10.06074219 11.06539063 9.28710938 10.51953125 C5.43064883 7.78575183 1.65204299 5.00585646 -2 2 C-1.34 1.34 -0.68 0.68 0 0 Z " fill="#DEF6FA" transform="translate(318,306)"/>
<path d="M0 0 C0 0.99 0 1.98 0 3 C-3.50134037 4.85926689 -7.00682974 6.71043086 -10.51635742 8.55419922 C-11.70958276 9.18251986 -12.90165245 9.81304027 -14.0925293 10.44580078 C-15.80472078 11.35506795 -17.52144779 12.25577827 -19.23828125 13.15625 C-20.26993408 13.70087891 -21.30158691 14.24550781 -22.36450195 14.80664062 C-25 16 -25 16 -28 16 C-28.33 15.01 -28.66 14.02 -29 13 C-25.35599427 11.14091431 -21.70809105 9.28974009 -18.05639648 7.44580078 C-16.81473958 6.81742993 -15.5741683 6.18690908 -14.3347168 5.55419922 C-12.55284003 4.64506386 -10.76670486 3.74429009 -8.98046875 2.84375 C-7.90692139 2.29912109 -6.83337402 1.75449219 -5.72729492 1.19335938 C-3 0 -3 0 0 0 Z " fill="#DDF5F8" transform="translate(150,303)"/>
<path d="M0 0 C0.66 0 1.32 0 2 0 C3.32594359 5.96674616 3.0884587 11.92583615 3 18 C0.10092058 13.65138087 -0.11376629 11.60416113 -0.0625 6.375 C-0.05347656 5.18648438 -0.04445313 3.99796875 -0.03515625 2.7734375 C-0.02355469 1.85820313 -0.01195313 0.94296875 0 0 Z " fill="#F8EBCB" transform="translate(112,59)"/>
<path d="M0 0 C0.33 0 0.66 0 1 0 C1 5.94 1 11.88 1 18 C-0.32 17.34 -1.64 16.68 -3 16 C-2.34 15.34 -1.68 14.68 -1 14 C-0.69940057 11.63490639 -0.50484988 9.25558119 -0.375 6.875 C-0.30023438 5.59367187 -0.22546875 4.31234375 -0.1484375 2.9921875 C-0.09945312 2.00476563 -0.05046875 1.01734375 0 0 Z " fill="#C5841B" transform="translate(50,412)"/>
<path d="M0 0 C0.598125 0.350625 1.19625 0.70125 1.8125 1.0625 C1.4825 2.0525 1.1525 3.0425 0.8125 4.0625 C-1.65550047 2.91076645 -3.23533565 2.01466435 -5.1875 0.0625 C-2.1875 -0.9375 -2.1875 -0.9375 0 0 Z " fill="#CEEDF3" transform="translate(341.1875,321.9375)"/>
</svg>
